Coordinates
version=1
nRows=22
nColumns=24
inDegrees=yes

Units are S.I. units (second, meters, Newtons, ...)
Angles are in degrees.

endheader
time	pelvis_tilt	pelvis_list	pelvis_rotation	pelvis_tx	pelvis_ty	pelvis_tz	hip_flexion_r	hip_adduction_r	hip_rotation_r	knee_angle_r	ankle_angle_r	subtalar_angle_r	mtp_angle_r	hip_flexion_l	hip_adduction_l	hip_rotation_l	knee_angle_l	ankle_angle_l	subtalar_angle_l	mtp_angle_l	lumbar_extension	lumbar_bending	lumbar_rotation
      1.71200000	      1.06217372	      1.23844257	     -4.59075171	      1.36293255	      1.01915892	      0.31033425	     23.21308095	     -4.48827414	     -6.10940493	    -66.33329724	      1.07559527	     -5.55388412	     -5.59044387	      6.91666078	      3.55667255	     -7.70636433	    -12.03302824	      0.20184092	    -13.67715907	     -2.34860849	    -11.55980519	     -4.35750619	      0.48105916
      1.71616667	      1.23418548	      1.09988448	     -4.25960999	      1.36793840	      1.02015704	      0.30938730	     23.40598872	     -4.42530572	     -6.54198586	    -65.47300501	      1.51159525	     -5.38778407	     -5.50391319	      6.26128652	      3.53526158	     -7.38466858	    -11.70170146	      0.22519699	    -13.63856071	     -2.30678097	    -11.81457832	     -4.10373003	      0.13872270
      1.72033333	      1.27204116	      1.00784063	     -4.04126137	      1.37298028	      1.02084359	      0.30871577	     23.77396084	     -4.34280115	     -6.82865270	    -64.61966994	      1.96742852	     -5.10868927	     -5.45617744	      5.75514290	      3.52271930	     -7.20212531	    -11.39413687	      0.29776626	    -13.55110380	     -2.27958872	    -11.89398648	     -3.91739496	     -0.00055614
      1.72450000	      1.39364145	      0.89153936	     -3.77762121	      1.37797786	      1.02166118	      0.30793653	     24.01239812	     -4.27052110	     -7.18242155	    -63.69158926	      2.38942559	     -4.91130245	     -5.41084404	      5.15991894	      3.49630244	     -6.95556053	    -11.07805339	      0.34540088	    -13.51119331	     -2.24196382	    -12.07452964	     -3.70341716	     -0.25407100
      1.72866667	      1.44301059	      0.80027513	     -3.56039472	      1.38300665	      1.02229438	      0.30727185	     24.33026451	     -4.19705641	     -7.47905263	    -62.74795661	      2.80406209	     -4.74226835	     -5.37956852	      4.65363025	      3.47738948	     -6.77714320	    -10.78295042	      0.40148884	    -13.46214639	     -2.20818827	    -12.15693683	     -3.51217420	     -0.42793561
      1.73283333	      1.52682378	      0.71164588	     -3.33470275	      1.38798359	      1.02295601	      0.30658518	     24.59157461	     -4.13561941	     -7.78289739	    -61.75501375	      3.20891702	     -4.60251481	     -5.35424015	      4.10628533	      3.46415845	     -6.56266512	    -10.47578241	      0.44244739	    -13.44221112	     -2.16968045	    -12.29075492	     -3.32743799	     -0.62608686
      1.73700000	      1.63130632	      0.61918851	     -3.09816569	      1.39291659	      1.02360792	      0.30587873	     24.81106388	     -4.07855521	     -8.10127221	    -60.71652637	      3.60538855	     -4.51692320	     -5.33701121	      3.55110637	      3.44466668	     -6.33240305	    -10.19028568	      0.49414097	    -13.42572719	     -2.11815141	    -12.44771680	     -3.13728920	     -0.82133163
      1.74116667	      1.61892068	      0.56801532	     -2.93124472	      1.39791845	      1.02399796	      0.30533695	     25.16847880	     -4.02507471	     -8.33108594	    -59.67287352	      3.97711839	     -4.38151047	     -5.32942771	      3.12528571	      3.44801668	     -6.19268588	     -9.92490969	      0.56837765	    -13.39162911	     -2.08549770	    -12.44593206	     -2.99686172	     -0.91465003
      1.74533333	      1.67703248	      0.48641503	     -2.72677098	      1.40281259	      1.02449732	      0.30474317	     25.41095309	     -3.95486924	     -8.59820883	    -58.55806186	      4.35021767	     -4.31748250	     -5.33500868	      2.63553563	      3.42154447	     -5.99608760	     -9.66539512	      0.64005490	    -13.35768260	     -2.03770300	    -12.56144628	     -2.82829957	     -1.09378492
      1.74950000	      1.72437797	      0.44299525	     -2.56420725	      1.40772613	      1.02489544	      0.30423685	     25.67373857	     -3.90812290	     -8.81626495	    -57.43394660	      4.68770483	     -4.28667314	     -5.34549912	      2.15511569	      3.42932540	     -5.84857568	     -9.41042538	      0.71841612	    -13.33871199	     -1.98500627	    -12.64389784	     -2.70714699	     -1.21973171
      1.75366667	      1.66050517	      0.45384293	     -2.48171014	      1.41261307	      1.02502832	      0.30395174	     26.07677736	     -3.86112682	     -8.91578163	    -56.31698174	      5.05463996	     -4.27817961	     -5.34849614	      1.80475445	      3.47554690	     -5.80327996	     -9.16666522	      0.77731825	    -13.30307821	     -1.97173983	    -12.58331975	     -2.67245192	     -1.25218880
      1.75783333	      1.74471112	      0.37061271	     -2.25534006	      1.41751698	      1.02547822	      0.30330162	     26.22180814	     -3.81268379	     -9.21368465	    -55.06127684	      5.33647813	     -4.25628912	     -5.38318745	      1.29553899	      3.44224678	     -5.58612562	     -8.93242515	      0.90329087	    -13.25020278	     -1.91089176	    -12.72240094	     -2.48400022	     -1.43460181
      1.76200000	      1.73116411	      0.35447836	     -2.15390677	      1.42240395	      1.02565660	      0.30296115	     26.50989121	     -3.75556706	     -9.34225967	    -53.82617359	      5.61126063	     -4.22699434	     -5.40921475	      0.89598498	      3.46110582	     -5.50993489	     -8.70624852	      1.00417062	    -13.21461530	     -1.87052986	    -12.73040915	     -2.40651374	     -1.48963118
      1.76616667	      1.64995179	      0.43279160	     -2.11248916	      1.42725700	      1.02560559	      0.30276349	     26.90341944	     -3.76164722	     -9.37417854	    -52.62560361	      5.91842405	     -4.28020456	     -5.41351548	      0.56574360	      3.57659192	     -5.46873795	     -8.46714432	      1.11519328	    -13.18830913	     -1.86299672	    -12.65239618	     -2.45141802	     -1.50584302
      1.77033333	      1.63045530	      0.36045417	     -1.95715047	      1.43217496	      1.02577472	      0.30234580	     27.11781490	     -3.66992804	     -9.57458263	    -51.25714998	      6.13396969	     -4.29246717	     -5.45023679	      0.18981417	      3.52712087	     -5.38826374	     -8.27925945	      1.24620927	    -13.09053743	     -1.82549232	    -12.65900652	     -2.29853363	     -1.57066597
      1.77450000	      1.61746462	      0.36643215	     -1.85386163	      1.43702192	      1.02584531	      0.30203480	     27.34840752	     -3.63387605	     -9.69029298	    -49.90417707	      6.39151762	     -4.32028239	     -5.49028890	     -0.19622115	      3.56269622	     -5.32098328	     -8.07609896	      1.35968648	    -13.04483294	     -1.79031839	    -12.66614673	     -2.24474409	     -1.64513824
      1.77866667	      1.56378040	      0.39707154	     -1.77265878	      1.44186362	      1.02577683	      0.30181097	     27.61937937	     -3.60464359	     -9.76487532	    -48.54113958	      6.63565557	     -4.37508878	     -5.52720475	     -0.52803405	      3.61745358	     -5.27344427	     -7.89773398	      1.50062711	    -12.98309899	     -1.75867171	    -12.63963830	     -2.23551301	     -1.68073358
      1.78283333	      1.51788483	      0.42716492	     -1.69114939	      1.44672939	      1.02570581	      0.30157066	     27.85542491	     -3.57633696	     -9.83749801	    -47.12661573	      6.84364690	     -4.43719903	     -5.57030760	     -0.87912849	      3.67272020	     -5.23063860	     -7.69485585	      1.64285133	    -12.90241294	     -1.72514973	    -12.60810330	     -2.21758242	     -1.71558970
      1.78700000	      1.42897064	      0.50245349	     -1.64374867	      1.45153339	      1.02547261	      0.30142220	     28.14770360	     -3.57132988	     -9.84995934	    -45.71807636	      7.11841656	     -4.49150751	     -5.58860376	     -1.16743121	      3.77337125	     -5.20746995	     -7.51941386	      1.76797640	    -12.88164060	     -1.71127459	    -12.53737910	     -2.25990203	     -1.73868859
      1.79116667	      1.34083704	      0.53696626	     -1.56600980	      1.45640593	      1.02526746	      0.30122236	     28.38638009	     -3.53962485	     -9.91017598	    -44.22461683	      7.29649008	     -4.54805932	     -5.61647622	     -1.46093775	      3.82666616	     -5.18007249	     -7.34658846	      1.91415286	    -12.81417469	     -1.69519824	    -12.46108888	     -2.25222816	     -1.75723445
      1.79533333	      1.27269309	      0.59253433	     -1.49615635	      1.46126652	      1.02503684	      0.30104330	     28.59104003	     -3.52595835	     -9.95020209	    -42.71239491	      7.48349332	     -4.59762896	     -5.64973799	     -1.77217244	      3.90219095	     -5.15890569	     -7.18350326	      2.08209948	    -12.72560608	     -1.67745415	    -12.40516632	     -2.26264471	     -1.78483304
      1.79950000	      1.19491319	      0.65706346	     -1.42011007	      1.46608980	      1.02475447	      0.30086385	     28.78878402	     -3.52305502	     -9.99258689	    -41.16185662	      7.63957044	     -4.65209791	     -5.68496363	     -2.06188311	      3.98487596	     -5.13239522	     -7.03348587	      2.25528856	    -12.63248660	     -1.65990586	    -12.34274174	     -2.28841152	     -1.81241269
